<?xml version="1.0" encoding="utf-8"?>
<!-- Generator: Adobe Illustrator 18.1.1, SVG Export Plug-In . SVG Version: 6.00 Build 0)  -->
<svg version="1.1" id="Layer_1" xmlns="http://www.w3.org/2000/svg" xmlns:xlink="http://www.w3.org/1999/xlink" x="0px" y="0px"
	 viewBox="0 0 250 50" enable-background="new 0 0 250 50" xml:space="preserve">
<g>
	<rect x="23.6" y="17.7" fill="#010101" width="3" height="16.5"/>
	<polygon fill="#010101" points="14.5,34.2 8,25.9 14.5,17.7 10.3,17.7 6.2,22.9 6.2,17.7 3.2,17.7 3.2,34.2 6.2,34.2 6.2,29 
		10.3,34.2 	"/>
	<path fill="#010101" d="M44.5,21.5C44.5,21.5,44.5,21.5,44.5,21.5L44.5,21.5h2.7v-3.8h-2.7v0c-3.6,0-6.5,3.7-6.5,8.3
		c0,4.6,2.9,8.2,6.5,8.2l0,0h0c0,0,0,0,0,0h2.6v-3.8h-2.7v0c-2,0-3.5-2-3.5-4.5C40.9,23.5,42.5,21.5,44.5,21.5z"/>
	<rect x="10.2" y="17.8" fill="#010101" width="2.1" height="2.7"/>
	<polygon fill="#010101" points="71.7,25.5 71.7,26.3 65.7,26.3 65.7,33.4 71.7,33.4 71.7,34.2 65,34.2 65,17.6 71.9,17.6 
		71.9,18.4 65.7,18.4 65.7,25.5 	"/>
	<polygon fill="#010101" points="90.4,17.6 91.1,17.6 91.1,34.2 90.2,34.2 82.1,18.7 82.1,34.2 81.5,34.2 81.5,17.6 82.3,17.6 
		90.4,33.1 	"/>
	<path fill="#010101" d="M105.6,27.1v-0.7h8.2c-0.4,5-3.1,8.1-6.8,8.1c-3.8,0-6.7-3.8-6.7-8.7c0-2.3,0.7-4.4,2.1-6.1
		c1.3-1.6,2.9-2.4,4.8-2.4c2.6,0,4.5,1.5,5.9,4.5h-0.8c-1.4-2.5-3-3.7-5.1-3.7c-1.5,0-2.7,0.6-3.8,1.7c-1.4,1.5-2.3,3.8-2.3,6.1
		c0,2.2,0.6,4.2,1.7,5.7c1.1,1.5,2.7,2.4,4.3,2.4c3,0,5.5-2.6,6-6.7H105.6z"/>
	<rect x="123.1" y="17.6" fill="#010101" width="0.7" height="16.6"/>
	<polygon fill="#010101" points="142.7,17.6 143.4,17.6 143.4,34.2 142.5,34.2 134.4,18.7 134.4,34.2 133.8,34.2 133.8,17.6 
		134.6,17.6 142.7,33.1 	"/>
	<polygon fill="#010101" points="160,25.5 160,26.3 154,26.3 154,33.4 160,33.4 160,34.2 153.3,34.2 153.3,17.6 160.2,17.6 
		160.2,18.4 154,18.4 154,25.5 	"/>
	<polygon fill="#010101" points="176.5,25.5 176.5,26.3 170.5,26.3 170.5,33.4 176.5,33.4 176.5,34.2 169.8,34.2 169.8,17.6 
		176.7,17.6 176.7,18.4 170.5,18.4 170.5,25.5 	"/>
	<path fill="#010101" d="M186.9,34.2h-0.6V17.6h3.5c1.2,0,2.3,0.1,3.2,1c1.1,0.9,1.7,2.5,1.7,4.4c0,2.9-1.6,5-4.1,5h-0.3l3.5,6.3
		h-0.8l-4-7h1.5c2.1,0,3.5-1.8,3.5-4.3c0-2.7-1.4-4.5-4.1-4.5h-3.1V34.2z"/>
	<rect x="203.8" y="17.6" fill="#010101" width="0.7" height="16.6"/>
	<polygon fill="#010101" points="223.5,17.6 224.1,17.6 224.1,34.2 223.2,34.2 215.2,18.7 215.2,34.2 214.5,34.2 214.5,17.6 
		215.3,17.6 223.5,33.1 	"/>
	<path fill="#010101" d="M238.6,27.1v-0.7h8.2c-0.4,5-3.1,8.1-6.8,8.1c-3.8,0-6.7-3.8-6.7-8.7c0-2.3,0.7-4.4,2.1-6.1
		c1.3-1.6,2.9-2.4,4.8-2.4c2.6,0,4.5,1.5,5.9,4.5h-0.8c-1.4-2.5-3-3.7-5.1-3.7c-1.5,0-2.7,0.6-3.8,1.7c-1.4,1.5-2.3,3.8-2.3,6.1
		c0,2.2,0.6,4.2,1.7,5.7c1.1,1.5,2.7,2.4,4.3,2.4c3,0,5.5-2.6,6-6.7H238.6z"/>
</g>
</svg>
