<?xml version="1.0" encoding="utf-8"?>
<!-- Generator: Adobe Illustrator 18.1.1, SVG Export Plug-In . SVG Version: 6.00 Build 0)  -->
<svg version="1.1" id="Layer_1" xmlns="http://www.w3.org/2000/svg" xmlns:xlink="http://www.w3.org/1999/xlink" x="0px" y="0px"
	 viewBox="0 0 350 350" enable-background="new 0 0 350 350" xml:space="preserve">
<g>
	<path d="M174.1,2C78,2,0,79.4,0,175c0,95.6,78,173,174.1,173s174.1-77.5,174.1-173C348.3,79.4,270.3,2,174.1,2z M331.6,173.7H220.8
		c0.8-20.2,17.4-36.4,38-36.4c0,0,0,0,0.1,0v0h28.4v-31.9H258v0.1c-4.6,0-9.1,0.6-13.4,1.5l41.8-41.5
		C314.1,93.3,331.3,131.4,331.6,173.7z M141.7,205.3l-29.2-29h45.5v12.8L141.7,205.3z M112.5,173.7l45.5-45.2v45.2H112.5z
		 M214.5,24.8c2.6,0,5.5,0.5,7.9,1.2c23.6,7.6,44.8,20.5,62.1,37.4l-94.4,93.8v-109C190.7,35.2,201.3,24.8,214.5,24.8z M126.1,25.9
		c2.3-0.7,5.1-1.2,7.6-1.2c13.5,0,24.4,10.8,24.4,24.2v56.4h-22.2l-44.3,44v-44H59.4v68.3H16.6C17.2,104.5,63,46,126.1,25.9z
		 M16.6,176.3h42.8v68.3h32.1v-44l27.5,27.3l-57.1,56.8C34.2,256.7,17,218.6,16.6,176.3z M133.7,325.3c-2.4,0-5.1-0.5-7.4-1.1
		c-23.8-7.5-45.2-20.5-62.6-37.5l94.4-93.7V301C158.1,314.4,147.1,325.3,133.7,325.3z M222.2,324.1c-2.3,0.7-5.1,1.2-7.7,1.2
		c-13.2,0-23.9-10.4-24.3-23.4v-112c6.8,31.2,34.5,54.5,67.8,54.9v0.1h29.1v-31.9h-28.4h-0.1c-20.6,0-37.3-16.3-38-36.5h110.9
		C331.1,245.5,285.3,304,222.2,324.1z"/>
</g>
</svg>
